<svg xmlns="http://www.w3.org/2000/svg" width="120" height="40" viewBox="0 0 120 40">
  <defs>
    <linearGradient id="laurelGold" x1="0%" y1="0%" x2="100%" y2="0%">
      <stop offset="0%" style="stop-color:#c9a962"/>
      <stop offset="50%" style="stop-color:#d9c088"/>
      <stop offset="100%" style="stop-color:#c9a962"/>
    </linearGradient>
  </defs>

  <!-- Left branch -->
  <g fill="url(#laurelGold)" transform="translate(0, 20)">
    <!-- Leaves -->
    <ellipse cx="10" cy="-8" rx="4" ry="8" transform="rotate(-30 10 -8)"/>
    <ellipse cx="18" cy="-10" rx="4" ry="8" transform="rotate(-20 18 -10)"/>
    <ellipse cx="26" cy="-11" rx="4" ry="8" transform="rotate(-10 26 -11)"/>
    <ellipse cx="34" cy="-10" rx="4" ry="7" transform="rotate(0 34 -10)"/>
    <ellipse cx="42" cy="-8" rx="3" ry="6" transform="rotate(10 42 -8)"/>
    <ellipse cx="48" cy="-5" rx="3" ry="5" transform="rotate(20 48 -5)"/>

    <ellipse cx="10" cy="8" rx="4" ry="8" transform="rotate(30 10 8)"/>
    <ellipse cx="18" cy="10" rx="4" ry="8" transform="rotate(20 18 10)"/>
    <ellipse cx="26" cy="11" rx="4" ry="8" transform="rotate(10 26 11)"/>
    <ellipse cx="34" cy="10" rx="4" ry="7" transform="rotate(0 34 10)"/>
    <ellipse cx="42" cy="8" rx="3" ry="6" transform="rotate(-10 42 8)"/>
    <ellipse cx="48" cy="5" rx="3" ry="5" transform="rotate(-20 48 5)"/>

    <!-- Stem -->
    <path d="M5 0 Q30 0 55 0" stroke="url(#laurelGold)" stroke-width="2" fill="none"/>
  </g>

  <!-- Right branch (mirrored) -->
  <g fill="url(#laurelGold)" transform="translate(120, 20) scale(-1, 1)">
    <!-- Leaves -->
    <ellipse cx="10" cy="-8" rx="4" ry="8" transform="rotate(-30 10 -8)"/>
    <ellipse cx="18" cy="-10" rx="4" ry="8" transform="rotate(-20 18 -10)"/>
    <ellipse cx="26" cy="-11" rx="4" ry="8" transform="rotate(-10 26 -11)"/>
    <ellipse cx="34" cy="-10" rx="4" ry="7" transform="rotate(0 34 -10)"/>
    <ellipse cx="42" cy="-8" rx="3" ry="6" transform="rotate(10 42 -8)"/>
    <ellipse cx="48" cy="-5" rx="3" ry="5" transform="rotate(20 48 -5)"/>

    <ellipse cx="10" cy="8" rx="4" ry="8" transform="rotate(30 10 8)"/>
    <ellipse cx="18" cy="10" rx="4" ry="8" transform="rotate(20 18 10)"/>
    <ellipse cx="26" cy="11" rx="4" ry="8" transform="rotate(10 26 11)"/>
    <ellipse cx="34" cy="10" rx="4" ry="7" transform="rotate(0 34 10)"/>
    <ellipse cx="42" cy="8" rx="3" ry="6" transform="rotate(-10 42 8)"/>
    <ellipse cx="48" cy="5" rx="3" ry="5" transform="rotate(-20 48 5)"/>

    <!-- Stem -->
    <path d="M5 0 Q30 0 55 0" stroke="url(#laurelGold)" stroke-width="2" fill="none"/>
  </g>
</svg>